<?xml version="1.0" encoding="UTF-8" standalone="no"?>
<svg
   version="1.2"
   width="158.21001mm"
   height="51.66mm"
   viewBox="0 0 15821.001 5165.9998"
   preserveAspectRatio="xMidYMid"
   fill-rule="evenodd"
   stroke-width="28.222"
   stroke-linejoin="round"
   xml:space="preserve"
   id="svg157"
   xmlns="http://www.w3.org/2000/svg"
   xmlns:svg="http://www.w3.org/2000/svg"
   xmlns:ooo="http://xml.openoffice.org/svg/export">
 <defs
   class="ClipPathGroup"
   id="defs8">
  <clipPath
   id="presentation_clip_path"
   clipPathUnits="userSpaceOnUse">
   <rect
   x="0"
   y="0"
   width="21590"
   height="8969"
   id="rect2" />
  </clipPath>
  <clipPath
   id="presentation_clip_path_shrink"
   clipPathUnits="userSpaceOnUse">
   <rect
   x="21"
   y="8"
   width="21547"
   height="8952"
   id="rect5" />
  </clipPath>
 </defs>
 <defs
   class="TextShapeIndex"
   id="defs12">
  <g
   ooo:slide="id1"
   ooo:id-list="id3 id4 id5 id6 id7 id8 id9 id10 id11 id12 id13 id14 id15 id16"
   id="g10" />
 </defs>
 <defs
   class="EmbeddedBulletChars"
   id="defs44">
  <g
   id="bullet-char-template-57356"
   transform="matrix(4.8828125e-4,0,0,-4.8828125e-4,0,0)">
   <path
   d="M 580,1141 1163,571 580,0 -4,571 Z"
   id="path14" />
  </g>
  <g
   id="bullet-char-template-57354"
   transform="matrix(4.8828125e-4,0,0,-4.8828125e-4,0,0)">
   <path
   d="M 8,1128 H 1137 V 0 H 8 Z"
   id="path17" />
  </g>
  <g
   id="bullet-char-template-10146"
   transform="matrix(4.8828125e-4,0,0,-4.8828125e-4,0,0)">
   <path
   d="M 174,0 602,739 174,1481 1456,739 Z M 1358,739 309,1346 659,739 Z"
   id="path20" />
  </g>
  <g
   id="bullet-char-template-10132"
   transform="matrix(4.8828125e-4,0,0,-4.8828125e-4,0,0)">
   <path
   d="M 2015,739 1276,0 H 717 l 543,543 H 174 v 393 h 1086 l -543,545 h 557 z"
   id="path23" />
  </g>
  <g
   id="bullet-char-template-10007"
   transform="matrix(4.8828125e-4,0,0,-4.8828125e-4,0,0)">
   <path
   d="m 0,-2 c -7,16 -16,29 -25,39 l 381,530 c -94,256 -141,385 -141,387 0,25 13,38 40,38 9,0 21,-2 34,-5 21,4 42,12 65,25 l 27,-13 111,-251 280,301 64,-25 24,25 c 21,-10 41,-24 62,-43 C 886,937 835,863 770,784 769,783 710,716 594,584 L 774,223 c 0,-27 -21,-55 -63,-84 l 16,-20 C 717,90 699,76 672,76 641,76 570,178 457,381 L 164,-76 c -22,-34 -53,-51 -92,-51 -42,0 -63,17 -64,51 -7,9 -10,24 -10,44 0,9 1,19 2,30 z"
   id="path26" />
  </g>
  <g
   id="bullet-char-template-10004"
   transform="matrix(4.8828125e-4,0,0,-4.8828125e-4,0,0)">
   <path
   d="M 285,-33 C 182,-33 111,30 74,156 52,228 41,333 41,471 c 0,78 14,145 41,201 34,71 87,106 158,106 53,0 88,-31 106,-94 l 23,-176 c 8,-64 28,-97 59,-98 l 735,706 c 11,11 33,17 66,17 42,0 63,-15 63,-46 V 965 c 0,-36 -10,-64 -30,-84 L 442,47 C 390,-6 338,-33 285,-33 Z"
   id="path29" />
  </g>
  <g
   id="bullet-char-template-9679"
   transform="matrix(4.8828125e-4,0,0,-4.8828125e-4,0,0)">
   <path
   d="M 813,0 C 632,0 489,54 383,161 276,268 223,411 223,592 c 0,181 53,324 160,431 106,107 249,161 430,161 179,0 323,-54 432,-161 108,-107 162,-251 162,-431 0,-180 -54,-324 -162,-431 C 1136,54 992,0 813,0 Z"
   id="path32" />
  </g>
  <g
   id="bullet-char-template-8226"
   transform="matrix(4.8828125e-4,0,0,-4.8828125e-4,0,0)">
   <path
   d="m 346,457 c -73,0 -137,26 -191,78 -54,51 -81,114 -81,188 0,73 27,136 81,188 54,52 118,78 191,78 73,0 134,-26 185,-79 51,-51 77,-114 77,-187 0,-75 -25,-137 -76,-188 -50,-52 -112,-78 -186,-78 z"
   id="path35" />
  </g>
  <g
   id="bullet-char-template-8211"
   transform="matrix(4.8828125e-4,0,0,-4.8828125e-4,0,0)">
   <path
   d="M -4,459 H 1135 V 606 H -4 Z"
   id="path38" />
  </g>
  <g
   id="bullet-char-template-61548"
   transform="matrix(4.8828125e-4,0,0,-4.8828125e-4,0,0)">
   <path
   d="m 173,740 c 0,163 58,303 173,419 116,115 255,173 419,173 163,0 302,-58 418,-173 116,-116 174,-256 174,-419 0,-163 -58,-303 -174,-418 C 1067,206 928,148 765,148 601,148 462,206 346,322 231,437 173,577 173,740 Z"
   id="path41" />
  </g>
 </defs>
 <g
   id="g49"
   transform="translate(-1917,-1242)">
  <g
   id="id2"
   class="Master_Slide">
   <g
   id="bg-id2"
   class="Background" />
   <g
   id="bo-id2"
   class="BackgroundObjects" />
  </g>
 </g>
 <g
   class="SlideGroup"
   id="g155"
   transform="translate(-1917,-1242)">
  <g
   id="g153">
   <g
   id="container-id1">
    <g
   id="id1"
   class="Slide"
   clip-path="url(#presentation_clip_path)">
     <g
   class="Page"
   id="g149">
      <g
   class="com.sun.star.drawing.ClosedBezierShape"
   id="g56">
       <g
   id="id3">
        <rect
   class="BoundingBox"
   stroke="none"
   fill="none"
   x="1917"
   y="1242"
   width="3241"
   height="3837"
   id="rect51" />
        <path
   fill="#ed1466"
   stroke="none"
   d="m 4060,2753 c 0,-148 -1,-297 0,-445 0,-41 -9,-80 -15,-120 -2,-14 -5,-15 -17,-6 -12,10 -24,20 -37,30 -49,41 -101,78 -146,124 -41,42 -78,87 -115,132 -146,175 -282,357 -410,545 -131,192 -253,390 -369,591 -25,44 -49,87 -72,131 -13,25 -23,52 -23,81 0,30 14,50 41,61 17,7 36,11 55,11 22,1 44,1 66,2 31,2 62,0 92,-10 53,-18 107,-37 161,-55 183,-61 366,-122 543,-197 46,-20 92,-38 136,-62 76,-40 115,-102 114,-190 0,-78 -4,-156 -4,-234 0,-130 0,-259 0,-389 z m 668,-1511 c 11,5 22,9 33,14 39,20 64,53 78,94 9,28 13,57 13,86 0,170 1,340 1,511 0,814 0,1629 -1,2443 0,32 0,63 0,95 1,83 40,135 119,161 10,3 21,6 32,9 100,21 168,130 151,233 -6,37 -18,72 -41,103 -36,50 -84,77 -146,79 -343,7 -685,4 -1027,3 -48,0 -95,-9 -135,-38 -50,-38 -72,-90 -77,-151 -2,-30 0,-60 6,-90 16,-81 64,-130 147,-147 18,-4 36,-7 53,-10 19,-4 37,-10 54,-18 48,-22 71,-61 76,-112 1,-11 1,-22 1,-33 -3,-158 -1,-316 0,-474 0,-31 -5,-61 -11,-91 -5,-18 -7,-20 -25,-13 -59,25 -119,51 -179,76 -96,40 -189,87 -286,125 -148,57 -300,95 -456,115 -108,14 -216,15 -324,13 -19,0 -38,0 -57,1 -48,2 -75,24 -85,70 -10,45 -28,86 -46,127 -12,26 -24,52 -30,80 -12,55 -2,103 40,143 11,11 23,22 35,32 59,49 94,110 86,188 -15,130 -107,220 -252,211 -29,-1 -57,-3 -85,-3 -78,0 -157,0 -235,-1 -24,0 -49,-1 -73,-5 -84,-11 -134,-57 -155,-141 -2,-10 -2,-21 -10,-29 v -95 c 7,-6 8,-15 11,-23 5,-14 10,-28 17,-41 28,-47 67,-78 121,-89 83,-17 141,-66 177,-143 12,-26 23,-51 34,-78 88,-204 170,-412 261,-615 58,-127 119,-253 189,-374 71,-122 146,-242 222,-362 112,-175 228,-347 347,-518 109,-157 219,-313 329,-469 83,-119 169,-236 266,-343 89,-97 183,-188 289,-267 118,-89 245,-161 384,-211 28,-10 56,-19 84,-28 z"
   id="path53" />
       </g>
      </g>
      <g
   class="com.sun.star.drawing.ClosedBezierShape"
   id="g63">
       <g
   id="id4">
        <rect
   class="BoundingBox"
   stroke="none"
   fill="none"
   x="15835"
   y="2331"
   width="1903"
   height="2735"
   id="rect58" />
        <path
   fill="#ed1466"
   stroke="none"
   d="m 17737,4310 c -6,14 -4,28 -6,42 -17,88 -48,170 -93,248 -53,94 -115,183 -194,258 -120,114 -261,182 -425,201 -85,10 -169,4 -253,-9 -105,-17 -207,-42 -305,-84 -203,-88 -350,-233 -439,-436 -28,-64 -47,-131 -44,-202 3,-87 31,-166 91,-231 56,-59 128,-86 207,-91 132,-9 249,33 352,115 41,32 75,72 102,117 34,56 37,117 29,179 -7,47 -19,93 -24,140 -3,28 -3,57 2,85 4,16 13,24 28,28 65,15 119,-5 166,-49 53,-49 78,-111 85,-182 11,-116 -31,-212 -110,-294 -56,-61 -123,-104 -199,-134 -139,-55 -275,-116 -408,-184 -61,-31 -121,-62 -180,-98 -101,-64 -182,-146 -231,-257 -26,-57 -41,-116 -48,-178 -16,-162 8,-318 65,-470 58,-155 163,-273 307,-355 130,-73 270,-116 417,-132 207,-24 399,22 578,126 93,53 177,119 257,190 54,48 88,109 109,177 23,71 34,145 31,219 -3,81 -19,159 -66,227 -59,83 -140,125 -241,129 -45,1 -89,-1 -132,-9 -106,-21 -187,-75 -240,-169 -37,-66 -63,-136 -65,-213 -1,-63 16,-120 46,-175 3,-5 7,-11 10,-16 3,-6 2,-12 -3,-17 -44,-34 -88,-68 -144,-80 -25,-6 -50,-5 -74,4 -78,32 -133,86 -153,169 -13,54 -4,107 20,157 40,86 97,159 168,221 75,67 160,119 249,164 78,40 157,78 235,118 118,61 230,132 334,214 102,81 159,187 184,312 2,11 0,25 5,36 z"
   id="path60" />
       </g>
      </g>
      <g
   class="com.sun.star.drawing.ClosedBezierShape"
   id="g70">
       <g
   id="id5">
        <rect
   class="BoundingBox"
   stroke="none"
   fill="none"
   x="10618"
   y="5560"
   width="867"
   height="848"
   id="rect65" />
        <path
   fill="#231f20"
   stroke="none"
   d="m 10973,6407 c -26,-7 -51,-11 -76,-20 -92,-34 -141,-103 -158,-196 -7,-35 -9,-72 -10,-108 -3,-130 -5,-259 -5,-389 0,-11 0,-22 -2,-33 -4,-21 -16,-35 -38,-42 -14,-4 -29,-6 -44,-9 -19,-3 -28,-28 -17,-43 5,-7 12,-6 19,-6 34,0 68,0 102,2 37,2 74,2 110,0 33,-2 67,-2 100,-2 20,0 23,3 24,20 2,20 -3,26 -21,30 -14,2 -28,5 -42,8 -18,5 -28,16 -32,34 -3,11 -4,22 -4,33 -2,120 -2,240 1,360 1,46 5,91 17,136 21,73 69,115 142,130 38,7 76,7 114,0 62,-10 102,-49 124,-108 14,-37 19,-76 21,-116 5,-101 6,-202 5,-303 0,-35 -3,-69 -5,-104 -2,-35 -15,-51 -49,-60 -18,-5 -36,-8 -54,-11 -17,-2 -21,-7 -20,-27 1,-18 4,-22 23,-22 16,-1 32,-1 47,0 61,4 122,5 183,0 9,0 19,0 28,0 24,0 32,11 26,34 -2,9 -6,14 -15,16 -13,2 -26,6 -39,9 -25,6 -38,23 -41,47 -2,18 -5,36 -5,54 0,82 -4,164 -6,246 -2,63 -7,126 -19,189 -11,55 -29,108 -66,153 -34,43 -77,70 -128,85 -16,5 -32,9 -48,13 z"
   id="path67" />
       </g>
      </g>
      <g
   class="com.sun.star.drawing.ClosedBezierShape"
   id="g77">
       <g
   id="id6">
        <rect
   class="BoundingBox"
   stroke="none"
   fill="none"
   x="9813"
   y="2168"
   width="3614"
   height="2908"
   id="rect72" />
        <path
   fill="#ed1466"
   stroke="none"
   d="m 10398,5073 c -123,0 -245,0 -368,0 -33,0 -66,-4 -98,-14 -42,-14 -73,-41 -91,-81 -24,-56 -32,-114 -23,-174 9,-62 45,-105 98,-136 13,-7 26,-13 40,-20 39,-21 62,-53 68,-97 2,-21 4,-42 4,-63 -6,-374 -3,-747 -3,-1120 0,-76 3,-152 3,-227 0,-22 -2,-43 -7,-64 -8,-34 -30,-54 -65,-61 -17,-3 -34,-5 -52,-4 -22,1 -38,-9 -51,-25 -28,-35 -37,-75 -32,-118 3,-21 11,-39 27,-54 62,-60 125,-118 190,-175 67,-57 133,-115 199,-172 76,-65 153,-129 230,-194 28,-23 55,-47 87,-66 33,-19 69,-33 108,-39 49,-7 86,15 102,61 12,33 11,67 14,101 1,17 2,34 7,51 8,25 23,35 48,28 26,-6 49,-17 73,-28 94,-44 191,-79 295,-95 176,-27 342,2 495,97 27,17 54,34 81,50 80,44 159,39 237,-5 27,-15 53,-31 80,-47 96,-54 198,-89 308,-101 147,-17 287,11 421,71 52,23 102,50 146,86 92,75 151,170 182,283 15,56 21,113 23,171 3,112 8,224 11,336 1,49 1,98 3,147 4,102 3,203 6,305 3,75 2,150 4,225 3,185 4,370 5,556 0,29 3,58 8,87 8,44 33,76 72,97 15,7 31,13 46,19 61,23 91,69 96,132 3,45 0,90 -7,135 -14,87 -74,130 -156,138 -3,0 -5,0 -7,0 -184,5 -367,7 -550,4 -46,-1 -93,-1 -138,-5 -74,-7 -132,-42 -164,-109 -21,-42 -30,-90 -28,-138 1,-34 10,-65 30,-93 9,-14 21,-26 34,-36 59,-43 87,-103 88,-175 1,-88 0,-177 0,-264 0,-375 0,-749 0,-1124 0,-54 -6,-107 -30,-157 -50,-105 -132,-164 -250,-170 -51,-3 -99,6 -146,23 -62,24 -93,66 -95,131 0,41 0,81 0,121 0,190 -3,379 1,569 7,284 2,569 4,854 0,15 1,30 4,45 7,50 38,79 84,95 8,3 17,5 26,6 76,15 125,61 146,135 22,78 13,151 -38,216 -35,45 -82,67 -138,72 -3,0 -7,0 -10,0 -185,1 -369,8 -554,4 -74,-2 -147,-1 -220,-4 -63,-2 -114,-30 -141,-88 -30,-63 -39,-130 -25,-199 9,-45 34,-79 74,-103 9,-5 18,-10 27,-15 60,-34 91,-87 96,-156 2,-33 1,-66 1,-99 0,-428 0,-854 0,-1281 0,-56 -7,-111 -31,-162 -50,-104 -131,-161 -248,-165 -66,-2 -127,12 -186,41 -69,34 -104,90 -104,167 -1,89 -1,178 1,267 6,185 3,369 4,553 1,212 0,425 0,638 0,22 2,43 5,64 8,46 33,81 74,104 19,10 38,17 55,28 57,32 96,78 105,144 11,72 -6,138 -47,198 -21,29 -52,45 -86,55 -38,12 -77,13 -115,13 -124,1 -248,0 -372,0 z"
   id="path74" />
       </g>
      </g>
      <g
   class="com.sun.star.drawing.ClosedBezierShape"
   id="g84">
       <g
   id="id7">
        <rect
   class="BoundingBox"
   stroke="none"
   fill="none"
   x="7506"
   y="2254"
   width="2146"
   height="2825"
   id="rect79" />
        <path
   fill="#ed1466"
   stroke="none"
   d="m 8819,3605 c 0,-217 0,-434 0,-652 0,-30 -1,-59 -4,-89 -14,-122 -89,-208 -209,-234 -28,-7 -56,-7 -84,0 -60,16 -101,54 -133,104 -40,62 -58,131 -61,204 -3,67 -4,135 -5,202 -1,116 1,233 2,350 2,159 2,317 -1,476 -3,122 1,245 2,368 0,26 5,51 11,75 17,58 48,107 94,145 55,44 119,52 184,42 86,-12 147,-58 176,-143 18,-54 27,-110 27,-167 1,-228 1,-454 1,-681 z m 831,7 c 2,81 -2,164 -11,246 -20,220 -75,431 -181,625 -53,97 -117,186 -190,268 -55,61 -112,118 -179,165 -115,82 -243,132 -382,152 -191,27 -373,-6 -544,-94 -127,-64 -231,-156 -319,-268 -170,-217 -274,-462 -315,-735 -10,-66 -17,-133 -20,-200 -2,-50 -4,-99 -2,-149 5,-183 27,-364 85,-539 56,-168 138,-321 252,-458 59,-71 123,-138 196,-195 114,-90 245,-144 388,-165 194,-29 380,-3 557,81 110,52 203,127 281,220 97,116 180,241 243,378 70,148 114,304 132,467 8,66 11,133 9,201 z"
   id="path81" />
       </g>
      </g>
      <g
   class="com.sun.star.drawing.ClosedBezierShape"
   id="g91">
       <g
   id="id8">
        <rect
   class="BoundingBox"
   stroke="none"
   fill="none"
   x="13657"
   y="2408"
   width="2189"
   height="2676"
   id="rect86" />
        <path
   fill="#ed1466"
   stroke="none"
   d="m 14328,4395 c 0,43 8,83 26,121 41,87 108,142 204,160 48,9 94,1 140,-13 50,-15 98,-36 147,-54 75,-27 92,-75 92,-140 0,-31 -3,-62 -3,-93 0,-108 0,-216 -5,-324 -1,-29 -3,-58 -6,-86 -7,-65 -15,-129 -22,-193 -2,-19 -4,-38 -7,-56 -5,-25 -30,-33 -48,-17 -7,6 -14,13 -21,19 -92,81 -185,160 -269,250 -79,86 -145,180 -193,286 -20,45 -36,91 -35,140 z m 1516,269 c -7,23 -18,41 -28,59 -37,71 -75,142 -125,206 -69,87 -157,140 -269,151 -110,11 -209,-18 -303,-74 -33,-21 -64,-45 -92,-74 -12,-12 -25,-24 -39,-34 -35,-25 -66,-24 -100,2 -16,13 -31,27 -47,40 -82,67 -176,107 -280,125 -123,20 -245,10 -365,-25 -96,-28 -187,-68 -267,-129 -114,-85 -189,-197 -233,-332 -34,-102 -45,-208 -37,-315 11,-161 61,-310 156,-442 66,-92 153,-150 263,-177 66,-17 134,-28 200,-42 102,-22 202,-46 301,-78 61,-20 110,-57 151,-106 67,-83 105,-178 113,-284 4,-66 -12,-127 -46,-184 -50,-84 -120,-148 -213,-184 -17,-7 -36,-12 -54,-15 -14,-3 -27,-3 -40,-2 -55,5 -76,50 -44,96 4,6 10,12 15,18 74,86 99,185 80,296 -11,64 -31,126 -60,184 -46,92 -122,140 -223,151 -52,6 -102,2 -151,-9 -83,-20 -149,-65 -196,-136 -51,-78 -83,-164 -86,-258 -4,-105 31,-198 91,-283 83,-117 185,-213 311,-285 108,-62 225,-100 349,-112 207,-20 398,29 578,128 55,30 106,65 150,108 99,94 158,210 186,342 10,51 15,102 19,153 5,58 11,116 17,174 5,61 11,122 16,182 6,61 11,123 17,184 5,59 11,118 16,177 6,61 12,122 17,185 6,57 11,114 16,172 6,60 12,119 17,179 2,16 3,33 3,50 -1,30 2,60 5,89 4,38 17,72 38,104 34,54 102,61 149,35 6,-3 12,-9 24,-10 z"
   id="path88" />
       </g>
      </g>
      <g
   class="com.sun.star.drawing.ClosedBezierShape"
   id="g98">
       <g
   id="id9">
        <rect
   class="BoundingBox"
   stroke="none"
   fill="none"
   x="5296"
   y="2172"
   width="2011"
   height="2903"
   id="rect93" />
        <path
   fill="#ed1466"
   stroke="none"
   d="m 6321,3665 c 0,215 -1,431 0,647 0,47 -4,92 -4,138 0,21 2,41 5,61 8,52 37,88 83,112 15,7 30,12 46,18 15,5 30,10 45,16 74,29 110,86 114,164 2,29 1,59 -3,88 -13,82 -64,138 -145,155 -26,6 -53,9 -80,9 -286,0 -572,0 -858,1 -112,1 -198,-83 -221,-171 -19,-70 2,-131 45,-186 27,-34 61,-57 104,-68 49,-13 79,-43 83,-96 2,-13 3,-25 3,-38 0,-461 0,-920 0,-1380 0,-18 -1,-36 -6,-54 -9,-40 -33,-61 -74,-65 -11,-1 -22,-1 -33,-1 -28,0 -55,-8 -80,-20 -24,-12 -43,-54 -37,-84 6,-34 19,-65 46,-89 65,-57 130,-115 195,-172 65,-58 131,-114 197,-171 71,-63 142,-125 213,-188 25,-21 48,-43 75,-62 41,-30 87,-51 139,-56 35,-3 69,2 102,14 32,12 49,42 44,78 -1,15 -3,30 -2,45 4,54 33,85 87,88 26,2 52,1 78,1 63,0 125,5 186,18 129,28 241,87 340,173 99,85 176,187 240,299 85,150 75,296 -25,436 -58,81 -135,134 -236,152 -97,17 -193,11 -282,-32 -102,-48 -162,-129 -181,-240 -12,-72 3,-141 33,-207 9,-20 18,-39 27,-58 13,-29 21,-60 24,-91 7,-62 -41,-115 -102,-119 -59,-3 -99,28 -132,71 -36,48 -49,104 -52,162 -2,29 -1,57 -1,86 0,205 0,410 0,616 z"
   id="path95" />
       </g>
      </g>
      <g
   class="com.sun.star.drawing.ClosedBezierShape"
   id="g105">
       <g
   id="id10">
        <rect
   class="BoundingBox"
   stroke="none"
   fill="none"
   x="15194"
   y="5559"
   width="809"
   height="836"
   id="rect100" />
        <path
   fill="#231f20"
   stroke="none"
   d="m 15448,5797 h -1 v 132 c 0,6 0,11 1,17 1,15 3,18 18,18 36,0 71,2 106,-5 20,-4 36,-12 50,-25 20,-19 31,-42 36,-68 8,-38 8,-76 1,-113 -20,-104 -97,-140 -185,-132 -15,1 -21,7 -24,22 -2,7 -2,15 -2,23 0,44 0,87 0,131 z m -1,361 c 2,41 -1,85 5,128 3,28 11,38 38,44 16,3 33,6 49,9 16,4 20,11 18,30 -1,17 -5,20 -23,20 -51,-1 -102,-3 -154,-3 -31,0 -63,2 -94,2 -23,1 -46,1 -69,1 -17,0 -21,-5 -22,-21 -2,-17 3,-25 18,-28 15,-3 31,-6 46,-9 20,-4 32,-15 36,-36 2,-13 4,-26 4,-40 0,-71 0,-141 1,-212 1,-43 4,-87 2,-130 -2,-80 -1,-159 -3,-239 -1,-38 -12,-50 -49,-58 -13,-2 -25,-4 -38,-6 -16,-2 -19,-8 -18,-26 1,-17 5,-23 21,-23 37,0 75,1 113,3 29,1 57,1 85,0 67,-4 133,-7 199,-2 72,5 134,33 174,97 49,77 38,190 -25,257 -20,21 -42,38 -68,53 -26,15 -26,16 -10,43 33,54 68,107 104,159 30,41 60,82 95,119 26,27 57,44 95,49 22,3 25,6 24,21 -1,23 -8,32 -28,33 -61,2 -120,-1 -179,-15 -38,-9 -66,-33 -90,-63 -42,-56 -77,-117 -112,-177 -16,-26 -31,-51 -46,-78 -12,-20 -28,-31 -52,-29 -6,1 -13,0 -19,0 -26,1 -27,2 -27,27 -1,32 -1,65 -1,100 z"
   id="path102" />
       </g>
      </g>
      <g
   class="com.sun.star.drawing.ClosedBezierShape"
   id="g112">
       <g
   id="id11">
        <rect
   class="BoundingBox"
   stroke="none"
   fill="none"
   x="9592"
   y="5559"
   width="824"
   height="838"
   id="rect107" />
        <path
   fill="#231f20"
   stroke="none"
   d="m 10250,5981 c 3,-64 -8,-128 -34,-188 -27,-62 -66,-114 -127,-145 -56,-29 -118,-36 -180,-31 -40,3 -41,6 -41,47 -1,169 -1,338 0,507 0,26 -1,52 1,78 1,28 11,53 39,64 79,31 155,31 227,-22 39,-30 64,-70 83,-114 26,-62 34,-128 32,-196 z m -571,-421 c 126,6 244,-3 361,-1 55,1 107,10 157,31 88,37 147,100 181,186 52,131 49,262 -12,389 -59,123 -162,192 -294,218 -58,11 -116,15 -175,11 -32,-2 -64,-1 -97,-2 -61,-1 -121,-2 -182,-3 -20,-1 -25,-6 -26,-23 -1,-18 5,-25 24,-28 17,-2 34,-5 51,-9 32,-7 44,-22 47,-54 2,-28 4,-54 4,-81 1,-151 1,-302 0,-453 0,-26 -2,-52 -4,-78 -2,-22 -13,-36 -35,-43 -17,-5 -35,-8 -53,-11 -17,-2 -21,-8 -20,-25 1,-18 6,-24 22,-24 20,-1 40,0 51,0 z"
   id="path109" />
       </g>
      </g>
      <g
   class="com.sun.star.drawing.ClosedBezierShape"
   id="g119">
       <g
   id="id12">
        <rect
   class="BoundingBox"
   stroke="none"
   fill="none"
   x="16086"
   y="5558"
   width="688"
   height="834"
   id="rect114" />
        <path
   fill="#231f20"
   stroke="none"
   d="m 16373,5783 c 0,40 0,81 0,121 1,22 3,25 25,25 48,0 96,0 144,-1 32,-1 43,-11 52,-42 3,-13 5,-27 9,-39 4,-14 16,-19 35,-15 16,3 20,7 18,24 -5,34 -2,68 -6,102 -2,11 -2,22 -1,33 3,27 3,54 3,80 1,27 -18,40 -43,30 -8,-3 -10,-10 -12,-17 -3,-14 -5,-28 -9,-41 -7,-24 -20,-35 -44,-36 -49,-2 -98,-6 -147,-4 -19,0 -23,3 -23,21 0,81 -4,161 3,243 2,33 12,43 45,46 54,4 107,7 161,5 35,-1 64,-15 84,-45 19,-31 37,-63 51,-97 10,-23 35,-26 51,-7 4,6 4,12 2,18 -13,60 -28,119 -51,176 -7,15 -19,22 -35,24 -26,3 -52,4 -78,3 -122,-5 -243,-5 -365,-4 -43,0 -85,1 -128,1 -24,0 -34,-16 -25,-38 3,-9 12,-10 20,-11 22,-4 43,-7 65,-11 28,-4 44,-20 47,-48 2,-10 3,-20 3,-30 1,-186 1,-371 0,-556 0,-14 -2,-28 -4,-42 -3,-18 -14,-28 -30,-33 -15,-5 -31,-7 -46,-10 -22,-3 -27,-11 -24,-32 1,-14 5,-18 19,-18 40,1 81,1 121,3 18,1 36,2 54,2 76,0 152,1 228,0 48,-1 96,-3 144,-5 20,-1 23,0 20,20 -7,54 -14,108 -16,163 0,19 -6,23 -25,24 -20,1 -26,-3 -29,-22 -4,-26 -8,-53 -18,-78 -9,-20 -23,-31 -45,-33 -57,-7 -115,-3 -173,-4 -16,0 -23,7 -26,23 -1,6 -1,12 -1,18 0,38 0,76 0,114 z"
   id="path116" />
       </g>
      </g>
      <g
   class="com.sun.star.drawing.ClosedBezierShape"
   id="g126">
       <g
   id="id13">
        <rect
   class="BoundingBox"
   stroke="none"
   fill="none"
   x="16924"
   y="5558"
   width="686"
   height="833"
   id="rect121" />
        <path
   fill="#231f20"
   stroke="none"
   d="m 17209,5783 c 0,39 0,79 0,118 1,26 2,28 27,28 46,0 91,0 137,-1 37,-1 50,-11 58,-47 3,-11 4,-22 7,-33 4,-14 14,-19 32,-17 17,2 22,7 21,25 -7,75 -4,150 -4,225 0,16 -4,19 -19,21 -22,2 -31,-1 -35,-16 -3,-10 -4,-21 -6,-32 -6,-33 -23,-47 -56,-48 -45,-1 -90,-5 -135,-3 -24,0 -27,2 -27,27 0,77 1,153 1,231 0,36 13,50 50,52 48,3 96,5 144,6 49,0 85,-18 108,-60 16,-29 31,-57 43,-86 8,-18 12,-20 28,-15 21,6 28,14 24,31 -13,56 -27,111 -47,164 -9,23 -23,32 -46,35 -35,3 -70,1 -105,0 -61,-2 -122,-2 -183,-2 -85,0 -170,1 -256,1 -7,0 -14,1 -21,0 -22,0 -26,-4 -25,-26 0,-17 3,-21 20,-23 20,-4 41,-6 61,-10 39,-8 49,-20 52,-61 4,-45 4,-89 4,-134 0,-129 0,-259 0,-388 0,-28 -2,-55 -5,-83 -3,-28 -11,-39 -39,-46 -13,-4 -27,-6 -41,-8 -22,-4 -30,-25 -19,-43 5,-8 12,-7 19,-7 33,1 66,0 99,2 74,5 147,2 221,3 75,1 151,-2 226,-5 18,-1 23,2 20,18 -9,55 -12,110 -17,165 -2,21 -26,32 -44,22 -5,-4 -7,-9 -7,-14 -3,-16 -6,-31 -9,-47 -2,-12 -6,-24 -11,-36 -9,-21 -24,-32 -48,-35 -57,-6 -114,-3 -170,-3 -19,0 -26,8 -26,29 -1,42 0,84 0,126 z"
   id="path123" />
       </g>
      </g>
      <g
   class="com.sun.star.drawing.ClosedBezierShape"
   id="g133">
       <g
   id="id14">
        <rect
   class="BoundingBox"
   stroke="none"
   fill="none"
   x="14386"
   y="5555"
   width="610"
   height="835"
   id="rect128" />
        <path
   fill="#231f20"
   stroke="none"
   d="m 14577,6387 c -21,0 -41,0 -62,0 -33,0 -66,1 -99,1 -25,0 -34,-13 -27,-36 3,-10 10,-12 18,-13 13,-2 26,-4 40,-6 33,-7 45,-21 46,-56 2,-65 5,-128 4,-192 -1,-107 0,-214 0,-320 -1,-35 -3,-70 -4,-104 -1,-22 -12,-36 -33,-42 -16,-5 -34,-7 -51,-10 -19,-4 -29,-27 -18,-43 4,-6 11,-6 17,-6 37,0 74,1 112,2 13,0 26,2 40,2 69,0 139,0 208,0 69,0 139,0 207,-8 17,-2 22,4 20,20 -10,57 -14,115 -17,172 0,23 -18,33 -39,26 -10,-3 -12,-11 -13,-20 -3,-24 -10,-47 -16,-70 -10,-37 -24,-48 -63,-52 -57,-6 -114,-3 -171,-2 -23,0 -29,7 -30,30 0,89 0,177 0,266 0,19 2,21 22,22 55,1 110,-3 165,-5 23,0 40,-12 48,-34 5,-17 9,-33 14,-50 5,-17 13,-20 35,-15 18,3 21,7 19,26 -8,70 -10,141 -4,212 0,5 0,10 0,15 1,25 -7,31 -33,30 -11,-1 -17,-5 -19,-16 -5,-19 -10,-37 -16,-55 -6,-18 -17,-29 -36,-31 -8,0 -16,-2 -23,-2 -49,-1 -98,-1 -147,-2 -23,0 -25,2 -25,25 0,74 0,148 1,223 0,7 1,14 2,21 4,21 17,34 38,38 18,3 37,7 56,9 29,2 28,12 27,31 -1,18 -5,21 -30,20 -54,0 -109,-1 -163,-2 z"
   id="path130" />
       </g>
      </g>
      <g
   class="com.sun.star.drawing.ClosedBezierShape"
   id="g140">
       <g
   id="id15">
        <rect
   class="BoundingBox"
   stroke="none"
   fill="none"
   x="11658"
   y="5546"
   width="743"
   height="844"
   id="rect135" />
        <path
   fill="#231f20"
   stroke="none"
   d="m 12101,5959 c 0,94 0,188 0,282 0,15 1,30 4,45 5,24 18,37 40,42 20,4 39,7 59,10 19,3 24,8 21,26 -1,19 -6,24 -25,24 -56,-1 -113,-2 -170,-3 -19,0 -38,1 -57,1 -42,1 -85,2 -128,2 -26,1 -31,-2 -32,-20 -1,-18 2,-29 29,-30 20,-1 40,-5 60,-10 24,-6 37,-21 41,-45 2,-13 4,-26 4,-40 5,-192 4,-385 4,-578 0,-4 1,-9 0,-14 -1,-15 -5,-21 -20,-21 -45,-1 -91,-4 -137,4 -19,3 -29,17 -38,32 -13,26 -25,53 -34,81 -4,9 -6,18 -10,27 -7,20 -12,22 -33,16 -19,-5 -23,-9 -20,-28 9,-65 16,-130 22,-195 2,-20 8,-25 26,-19 47,15 95,16 143,16 120,0 240,0 360,0 58,0 115,2 170,-16 14,-5 21,2 20,17 -1,14 -3,27 -6,40 -8,50 -13,100 -17,150 -1,5 -1,10 -1,15 -4,19 -11,25 -31,24 -16,-1 -21,-5 -23,-21 -3,-31 -8,-61 -16,-91 -2,-8 -4,-15 -8,-22 -8,-16 -21,-25 -39,-27 -45,-5 -89,-6 -133,-2 -26,3 -26,4 -26,29 0,100 0,199 0,299 z"
   id="path137" />
       </g>
      </g>
      <g
   class="com.sun.star.drawing.ClosedBezierShape"
   id="g147">
       <g
   id="id16">
        <rect
   class="BoundingBox"
   stroke="none"
   fill="none"
   x="12573"
   y="5559"
   width="786"
   height="832"
   id="rect142" />
        <path
   fill="#231f20"
   stroke="none"
   d="m 13055,6390 c -88,-6 -177,-4 -264,0 -19,1 -24,-3 -26,-19 -3,-18 3,-28 20,-31 20,-4 41,-7 61,-11 28,-7 38,-18 40,-48 5,-69 5,-136 4,-204 0,-24 -6,-48 -16,-69 -51,-111 -105,-220 -164,-326 -2,-3 -4,-7 -6,-10 -20,-37 -51,-57 -93,-62 -5,0 -11,-1 -16,-1 -19,-4 -24,-12 -21,-30 2,-14 7,-19 22,-19 20,-1 40,-1 59,1 67,5 134,2 201,0 13,-1 26,-1 38,-1 16,1 20,5 22,20 2,17 -2,25 -16,29 -9,2 -19,3 -28,6 -15,5 -18,13 -13,28 5,13 10,26 16,39 38,82 77,163 118,244 4,7 5,19 15,19 10,0 11,-12 15,-20 43,-80 84,-160 119,-244 3,-7 6,-15 8,-23 6,-22 0,-33 -22,-39 -14,-4 -29,-6 -44,-9 -20,-4 -24,-7 -22,-28 1,-19 4,-22 25,-22 28,0 55,0 83,2 33,2 66,2 99,0 22,-2 44,-2 66,-2 16,0 21,4 22,18 3,18 -3,28 -17,31 -2,1 -3,1 -5,1 -57,5 -94,39 -121,87 -50,86 -97,174 -142,263 -16,32 -35,64 -36,101 0,26 -1,53 1,79 3,36 3,72 3,109 0,11 0,21 1,31 4,30 16,43 46,50 15,4 31,6 46,9 20,4 24,10 21,32 -2,17 -7,19 -26,19 -24,0 -49,0 -73,0 z"
   id="path144" />
       </g>
      </g>
     </g>
    </g>
   </g>
  </g>
 </g>
</svg>
